<svg width="69" height="143" viewBox="0 0 69 143" fill="none" xmlns="http://www.w3.org/2000/svg">
    <g opacity="0.7">
        <path d="M2.47657 31.0438C1.1088 31.0438 0 29.935 0 28.5673C0 27.1995 1.1088 26.0907 2.47657 26.0907H20.3574C21.7252 26.0907 22.834 27.1995 22.834 28.5673C22.834 29.935 21.7252 31.0438 20.3574 31.0438H2.47657ZM8.80222 19.7662C8.80222 18.3078 9.98449 17.1255 11.4429 17.1255C12.9013 17.1255 14.0836 18.3078 14.0836 19.7662V37.3188C14.0836 38.7772 12.9013 39.9595 11.4429 39.9595C9.98449 39.9595 8.80222 38.7772 8.80222 37.3188V19.7662Z" fill="#CD201F"/>
        <path d="M2.47657 65.2948C1.1088 65.2948 0 64.186 0 62.8183C0 61.4505 1.1088 60.3417 2.47657 60.3417H20.3574C21.7252 60.3417 22.834 61.4505 22.834 62.8183C22.834 64.186 21.7252 65.2948 20.3574 65.2948H2.47657ZM8.80222 54.0172C8.80222 52.5588 9.98449 51.3765 11.4429 51.3765C12.9013 51.3765 14.0836 52.5588 14.0836 54.0172V71.5698C14.0836 73.0282 12.9013 74.2105 11.4429 74.2105C9.98449 74.2105 8.80222 73.0282 8.80222 71.5698V54.0172Z" fill="#F3F3F3"/>
        <path d="M2.47657 99.5458C1.1088 99.5458 0 98.437 0 97.0693C0 95.7015 1.1088 94.5927 2.47657 94.5927H20.3574C21.7252 94.5927 22.834 95.7015 22.834 97.0693C22.834 98.437 21.7252 99.5458 20.3574 99.5458H2.47657ZM8.80222 88.2682C8.80222 86.8098 9.98449 85.6275 11.4429 85.6275C12.9013 85.6275 14.0836 86.8098 14.0836 88.2682V105.821C14.0836 107.279 12.9013 108.462 11.4429 108.462C9.98449 108.462 8.80222 107.279 8.80222 105.821V88.2682Z" fill="#CD201F"/>
        <path d="M2.47657 134.084C1.1088 134.084 0 132.976 0 131.608C0 130.24 1.1088 129.131 2.47657 129.131H20.3574C21.7252 129.131 22.834 130.24 22.834 131.608C22.834 132.976 21.7252 134.084 20.3574 134.084H2.47657ZM8.80222 122.807C8.80222 121.348 9.98449 120.166 11.4429 120.166C12.9013 120.166 14.0836 121.348 14.0836 122.807V140.359C14.0836 141.818 12.9013 143 11.4429 143C9.98449 143 8.80222 141.818 8.80222 140.359V122.807Z" fill="#CD201F"/>
        <path d="M25.3106 22.4811C23.9428 22.4811 22.834 21.3723 22.834 20.0045C22.834 18.6367 23.9428 17.5279 25.3106 17.5279H43.1914C44.5592 17.5279 45.668 18.6367 45.668 20.0045C45.668 21.3723 44.5592 22.4811 43.1914 22.4811H25.3106ZM31.6362 11.2034C31.6362 9.74502 32.8185 8.56275 34.2769 8.56275C35.7353 8.56275 36.9175 9.74502 36.9175 11.2034V28.7561C36.9175 30.2145 35.7353 31.3968 34.2769 31.3968C32.8185 31.3968 31.6362 30.2145 31.6362 28.7561V11.2034Z" fill="#CD201F"/>
        <path d="M25.3106 56.7321C23.9428 56.7321 22.834 55.6233 22.834 54.2555C22.834 52.8877 23.9428 51.7789 25.3106 51.7789H43.1914C44.5592 51.7789 45.668 52.8877 45.668 54.2555C45.668 55.6233 44.5592 56.7321 43.1914 56.7321H25.3106ZM31.6362 45.4544C31.6362 43.996 32.8185 42.8138 34.2769 42.8138C35.7353 42.8138 36.9175 43.996 36.9175 45.4544V63.0071C36.9175 64.4655 35.7353 65.6478 34.2769 65.6478C32.8185 65.6478 31.6362 64.4655 31.6362 63.0071V45.4544Z" fill="#F3F3F3"/>
        <path d="M25.3106 90.9831C23.9428 90.9831 22.834 89.8743 22.834 88.5065C22.834 87.1388 23.9428 86.03 25.3106 86.03H43.1914C44.5592 86.03 45.668 87.1388 45.668 88.5065C45.668 89.8743 44.5592 90.9831 43.1914 90.9831H25.3106ZM31.6362 79.7054C31.6362 78.247 32.8185 77.0648 34.2769 77.0648C35.7353 77.0648 36.9175 78.247 36.9175 79.7054V97.2581C36.9175 98.7165 35.7353 99.8988 34.2769 99.8988C32.8185 99.8988 31.6362 98.7165 31.6362 97.2581V79.7054Z" fill="#CD201F"/>
        <path d="M48.1445 13.9183C46.7768 13.9183 45.668 12.8095 45.668 11.4418C45.668 10.074 46.7768 8.96519 48.1445 8.96519H66.0254C67.3932 8.96519 68.502 10.074 68.502 11.4418C68.502 12.8095 67.3932 13.9183 66.0254 13.9183H48.1445ZM54.4702 2.64067C54.4702 1.18227 55.6525 0 57.1109 0C58.5693 0 59.7515 1.18227 59.7515 2.64067V20.1933C59.7515 21.6517 58.5693 22.834 57.1109 22.834C55.6525 22.834 54.4702 21.6517 54.4702 20.1933V2.64067Z" fill="#CD201F"/>
        <path d="M48.1445 48.1693C46.7768 48.1693 45.668 47.0605 45.668 45.6928C45.668 44.325 46.7768 43.2162 48.1445 43.2162H66.0254C67.3932 43.2162 68.502 44.325 68.502 45.6928C68.502 47.0605 67.3932 48.1693 66.0254 48.1693H48.1445ZM54.4702 36.8917C54.4702 35.4333 55.6525 34.251 57.1109 34.251C58.5693 34.251 59.7515 35.4333 59.7515 36.8917V54.4443C59.7515 55.9027 58.5693 57.085 57.1109 57.085C55.6525 57.085 54.4702 55.9027 54.4702 54.4443V36.8917Z" fill="#F3F3F3"/>
        <path d="M48.1445 82.4204C46.7768 82.4204 45.668 81.3116 45.668 79.9438C45.668 78.576 46.7768 77.4672 48.1445 77.4672H66.0254C67.3932 77.4672 68.502 78.576 68.502 79.9438C68.502 81.3116 67.3932 82.4204 66.0254 82.4204H48.1445ZM54.4702 71.1427C54.4702 69.6843 55.6525 68.502 57.1109 68.502C58.5693 68.502 59.7515 69.6843 59.7515 71.1427V88.6953C59.7515 90.1537 58.5693 91.336 57.1109 91.336C55.6525 91.336 54.4702 90.1538 54.4702 88.6954V71.1427Z" fill="#CD201F"/>
    </g>
</svg>
