<svg width="48" height="47" viewBox="0 0 48 47" fill="none" xmlns="http://www.w3.org/2000/svg">
    <path d="M3.74313 12.0387L23.5947 0.57735L43.4463 12.0387V34.9613L23.5947 46.4226L3.74313 34.9613V12.0387Z" fill="#373737" stroke="#68666C"/>
    <path d="M23.9482 13.6464C23.753 13.4512 23.4364 13.4512 23.2411 13.6464L20.0591 16.8284C19.8639 17.0237 19.8639 17.3403 20.0591 17.5355C20.2544 17.7308 20.571 17.7308 20.7662 17.5355L23.5947 14.7071L26.4231 17.5355C26.6184 17.7308 26.9349 17.7308 27.1302 17.5355C27.3255 17.3403 27.3255 17.0237 27.1302 16.8284L23.9482 13.6464ZM23.0947 14L23.0947 33L24.0947 33L24.0947 14L23.0947 14Z" fill="white"/>
</svg>